<svg width="14" height="13" viewBox="0 0 14 13" fill="none" xmlns="http://www.w3.org/2000/svg">
<path d="M12.9321 2.66303C12.4997 2.85461 12.0352 2.98406 11.547 3.04257C12.0508 2.74111 12.4277 2.26664 12.6074 1.70769C12.1341 1.98885 11.616 2.18675 11.0758 2.2928C10.7125 1.9049 10.2313 1.64779 9.70687 1.5614C9.18248 1.475 8.64423 1.56415 8.1757 1.815C7.70716 2.06586 7.33455 2.46438 7.11572 2.9487C6.89688 3.43302 6.84407 3.97604 6.96548 4.49345C6.00635 4.44529 5.06807 4.196 4.21152 3.76175C3.35498 3.3275 2.59931 2.718 1.99357 1.9728C1.78645 2.33008 1.66735 2.74432 1.66735 3.18549C1.66712 3.58264 1.76492 3.9737 1.95208 4.32399C2.13924 4.67428 2.40996 4.97295 2.74023 5.19351C2.35721 5.18133 1.98263 5.07783 1.64768 4.89164V4.9227C1.64764 5.47972 1.84032 6.0196 2.19301 6.45073C2.54571 6.88186 3.03671 7.17768 3.58269 7.28801C3.22737 7.38417 2.85484 7.39834 2.49324 7.32944C2.64729 7.80872 2.94735 8.22783 3.35143 8.5281C3.7555 8.82837 4.24336 8.99477 4.74671 9.004C3.89225 9.67476 2.837 10.0386 1.75072 10.037C1.5583 10.0371 1.36603 10.0258 1.17493 10.0034C2.27757 10.7123 3.56112 11.0886 4.87201 11.0871C9.30955 11.0871 11.7354 7.41177 11.7354 4.22419C11.7354 4.12063 11.7329 4.01604 11.7282 3.91248C12.2001 3.57123 12.6074 3.14867 12.931 2.66458L12.9321 2.66303Z" fill="white"/>
</svg>
