<svg width="13" height="13" viewBox="0 0 13 13" fill="none" xmlns="http://www.w3.org/2000/svg">
<path d="M11.2446 4.40715C11.2393 4.01499 11.1659 3.62671 11.0276 3.25971C10.9077 2.95015 10.7245 2.669 10.4897 2.43425C10.255 2.1995 9.97381 2.01629 9.66425 1.89635C9.30196 1.76035 8.91923 1.68681 8.53234 1.67887C8.03421 1.6566 7.87629 1.65039 6.61182 1.65039C5.34735 1.65039 5.18528 1.65039 4.69079 1.67887C4.30407 1.68687 3.92152 1.76041 3.55939 1.89635C3.24978 2.01621 2.9686 2.19938 2.73383 2.43415C2.49907 2.66891 2.31589 2.9501 2.19603 3.25971C2.05976 3.62172 1.98638 4.00436 1.97907 4.3911C1.9568 4.88974 1.95007 5.04767 1.95007 6.31214C1.95007 7.5766 1.95007 7.73816 1.97907 8.23317C1.98684 8.62049 2.05985 9.00262 2.19603 9.3656C2.31609 9.67512 2.4994 9.95619 2.73425 10.1909C2.96909 10.4255 3.2503 10.6086 3.55991 10.7284C3.92104 10.8699 4.30366 10.9487 4.6913 10.9615C5.18994 10.9837 5.34787 10.9905 6.61234 10.9905C7.8768 10.9905 8.03888 10.9905 8.53337 10.9615C8.92025 10.9538 9.30301 10.8805 9.66528 10.7445C9.97477 10.6244 10.2558 10.4412 10.4906 10.2064C10.7253 9.97169 10.9086 9.69062 11.0286 9.38113C11.1648 9.01867 11.2378 8.63654 11.2456 8.24871C11.2679 7.75058 11.2746 7.59266 11.2746 6.32767C11.2736 5.06321 11.2736 4.90269 11.2446 4.40715ZM6.60871 8.70333C5.28625 8.70333 4.21493 7.63201 4.21493 6.30955C4.21493 4.98709 5.28625 3.91576 6.60871 3.91576C7.24359 3.91576 7.85245 4.16796 8.30138 4.61689C8.7503 5.06581 9.0025 5.67468 9.0025 6.30955C9.0025 6.94442 8.7503 7.55329 8.30138 8.00221C7.85245 8.45113 7.24359 8.70333 6.60871 8.70333ZM9.09778 4.38541C8.78865 4.38541 8.53959 4.13583 8.53959 3.82722C8.53959 3.75395 8.55402 3.6814 8.58206 3.61371C8.6101 3.54602 8.65119 3.48451 8.703 3.4327C8.75481 3.3809 8.81632 3.3398 8.88401 3.31176C8.9517 3.28372 9.02425 3.26929 9.09752 3.26929C9.17078 3.26929 9.24334 3.28372 9.31103 3.31176C9.37872 3.3398 9.44022 3.3809 9.49203 3.4327C9.54384 3.48451 9.58494 3.54602 9.61298 3.61371C9.64101 3.6814 9.65545 3.75395 9.65545 3.82722C9.65545 4.13583 9.40587 4.38541 9.09778 4.38541Z" fill="white"/>
<path d="M6.60878 7.8643C7.46756 7.8643 8.16374 7.16812 8.16374 6.30935C8.16374 5.45057 7.46756 4.75439 6.60878 4.75439C5.75001 4.75439 5.05383 5.45057 5.05383 6.30935C5.05383 7.16812 5.75001 7.8643 6.60878 7.8643Z" fill="white"/>
</svg>
