<svg width="65" height="43" viewBox="0 0 65 43" fill="none" xmlns="http://www.w3.org/2000/svg">
<path d="M15.9171 25.5371V36.1665H53.275C54.3424 36.1665 55.2076 35.3012 55.2076 34.2339C55.2076 33.2955 55.2076 26.4737 55.2076 25.5371L35.5623 22.9602L15.9171 25.5371Z" fill="#8B9BA9"/>
<path d="M51.3423 25.022V32.3015H15.9171V36.1667H53.275C54.3424 36.1667 55.2076 35.3014 55.2076 34.2341C55.2076 33.3448 55.2076 26.4096 55.2076 25.5373L51.3423 25.022Z" fill="#6C7A88"/>
<path d="M56.9474 0.0690918H21.7157C20.6484 0.0690918 19.7831 0.934384 19.7831 2.0017V8.02434H6.89457C5.08668 8.02434 3.52024 9.2777 3.12354 11.0415L1.66081 17.5462C1.28511 19.217 1.09546 20.9244 1.09546 22.6369V36.1663H19.7831C19.7831 35.8518 19.7831 31.0718 19.7831 25.537H56.9475C58.0148 25.537 58.8801 24.6717 58.8801 23.6044V2.0017C58.88 0.934255 58.0149 0.0690918 56.9474 0.0690918Z" fill="#FF7E40"/>
<path d="M64.034 17.2373H58.8801V13.7693H61.4571C61.9909 13.7693 62.4234 13.3367 62.4234 12.803C62.4234 12.2694 61.9909 11.8367 61.4571 11.8367H58.8801V8.36874H62.7455C63.2793 8.36874 63.7118 7.93609 63.7118 7.40243C63.7118 6.86877 63.2793 6.43613 62.7455 6.43613H58.8801V2.968H64.034C64.5678 2.968 65.0003 2.53536 65.0003 2.0017C65.0003 1.46804 64.5678 1.0354 64.034 1.0354H58.6195C58.2852 0.458319 57.6625 0.0690918 56.9475 0.0690918H55.0149V21.6719H19.7831C19.7831 14.8734 19.7831 8.20781 19.7831 8.02422H15.9179V25.5371H13.019C10.2018 25.5371 7.63901 26.6409 5.735 28.436H1.09546V36.1665H19.7831C19.7831 35.9043 19.7831 31.1024 19.7831 25.5371H31.6949H56.9475C57.6625 25.5371 58.2852 25.1479 58.6195 24.5708H62.7455C63.2793 24.5708 63.7118 24.1382 63.7118 23.6045C63.7118 23.0708 63.2793 22.6382 62.7455 22.6382H58.8801V19.1701H64.034C64.5678 19.1701 65.0003 18.7374 65.0003 18.2038C65.0003 17.6701 64.5678 17.2373 64.034 17.2373Z" fill="#FF6344"/>
<path d="M0.966303 36.1662H8.03913V32.301H0.966303C0.432646 32.301 0 32.7337 0 33.2673V35.1999C0 35.7337 0.432646 36.1662 0.966303 36.1662Z" fill="#8B9BA9"/>
<path d="M15.9178 11.8894H6.66399L4.8266 20.0601H15.9178V11.8894Z" fill="#9DC6FB"/>
<path d="M12.2831 16.1949H5.69576L4.8266 20.0601H15.9178V11.8894H12.2831V16.1949Z" fill="#80B4FB"/>
<path d="M45.8667 42.9304C49.6024 42.9304 52.6309 39.902 52.6309 36.1662C52.6309 32.4305 49.6024 29.4021 45.8667 29.4021C42.131 29.4021 39.1026 32.4305 39.1026 36.1662C39.1026 39.902 42.131 42.9304 45.8667 42.9304Z" fill="#4D5967"/>
<path d="M47.2501 29.5449C46.4572 31.0097 46.6789 32.8784 47.9171 34.1164L43.8174 38.2162C42.5793 36.978 40.7106 36.7561 39.2457 37.5491C39.8858 40.6177 42.6113 42.9304 45.8672 42.9304C49.597 42.9304 52.6313 39.8961 52.6313 36.1663C52.6312 32.9104 50.3187 30.185 47.2501 29.5449Z" fill="#35404A"/>
<path d="M45.8664 39.0654C47.4675 39.0654 48.7654 37.7675 48.7654 36.1665C48.7654 34.5655 47.4675 33.2676 45.8664 33.2676C44.2654 33.2676 42.9675 34.5655 42.9675 36.1665C42.9675 37.7675 44.2654 39.0654 45.8664 39.0654Z" fill="#FFF9EB"/>
<path d="M13.0188 42.9304C16.7545 42.9304 19.7829 39.902 19.7829 36.1662C19.7829 32.4305 16.7545 29.4021 13.0188 29.4021C9.28304 29.4021 6.25464 32.4305 6.25464 36.1662C6.25464 39.902 9.28304 42.9304 13.0188 42.9304Z" fill="#4D5967"/>
<path d="M14.402 29.5449C13.6091 31.0097 13.8308 32.8784 15.069 34.1164L10.9693 38.2162C9.73126 36.978 7.86256 36.7561 6.39764 37.5491C7.03772 40.6177 9.76321 42.9304 13.0191 42.9304C16.7489 42.9304 19.7833 39.8961 19.7833 36.1663C19.7833 32.9104 17.4707 30.185 14.402 29.5449Z" fill="#35404A"/>
<path d="M13.0185 39.0654C14.6195 39.0654 15.9174 37.7675 15.9174 36.1665C15.9174 34.5655 14.6195 33.2676 13.0185 33.2676C11.4175 33.2676 10.1196 34.5655 10.1196 36.1665C10.1196 37.7675 11.4175 39.0654 13.0185 39.0654Z" fill="#FFF9EB"/>
<path d="M29.5608 10.8711V11.8374H30.7846C31.3183 11.8374 31.7507 12.2698 31.7507 12.8035C31.7507 13.3373 31.3183 13.7698 30.7846 13.7698H29.5608V15.7022C29.5608 16.236 29.1281 16.6685 28.5946 16.6685C28.0611 16.6685 27.6285 16.2361 27.6285 15.7022V9.90501C27.6285 9.37135 28.0611 8.93896 28.5946 8.93896H31.5575C32.0912 8.93896 32.5236 9.37135 32.5236 9.90501C32.5236 10.4388 32.0912 10.8713 31.5575 10.8713H29.5608V10.8711Z" fill="#FFF9EB"/>
<path d="M38.7696 15.0216C39.145 15.4003 39.1426 16.0122 38.7638 16.3879C38.5752 16.5746 38.3294 16.668 38.0834 16.668C37.8347 16.668 37.5862 16.5727 37.3973 16.3821L35.7647 14.7357H35.2493V15.7017C35.2493 16.2355 34.8167 16.668 34.2831 16.668C33.7496 16.668 33.3171 16.2356 33.3171 15.7017V9.90452C33.3171 9.37087 33.7496 8.93848 34.2831 8.93848H36.1674C37.7567 8.93848 39.0497 10.2389 39.0497 11.837C39.0497 12.7799 38.5994 13.6187 37.9038 14.1485L38.7696 15.0216ZM37.1172 11.837C37.1172 11.3041 36.691 10.8707 36.1674 10.8707H35.2493V12.803H36.1674C36.691 12.803 37.1172 12.3696 37.1172 11.837Z" fill="#FFF9EB"/>
<path d="M45.0384 15.7015C45.0384 16.2352 44.606 16.6678 44.0724 16.6678H41.1094C40.5759 16.6678 40.1434 16.2354 40.1434 15.7015V9.90428C40.1434 9.37062 40.5759 8.93823 41.1094 8.93823H44.0724C44.606 8.93823 45.0384 9.37062 45.0384 9.90428C45.0384 10.4381 44.606 10.8706 44.0724 10.8706H42.0756V11.8369H43.2994C43.8331 11.8369 44.2655 12.2693 44.2655 12.8031C44.2655 13.3368 43.8331 13.7694 43.2994 13.7694H42.0756V14.7355H44.0724C44.606 14.7354 45.0384 15.1678 45.0384 15.7015Z" fill="#FFF9EB"/>
<path d="M51.0341 15.7015C51.0341 16.2352 50.6017 16.6678 50.068 16.6678H47.1051C46.5716 16.6678 46.139 16.2354 46.139 15.7015V9.90428C46.139 9.37062 46.5716 8.93823 47.1051 8.93823H50.068C50.6017 8.93823 51.0341 9.37062 51.0341 9.90428C51.0341 10.4381 50.6017 10.8706 50.068 10.8706H48.0713V11.8369H49.2951C49.8288 11.8369 50.2612 12.2693 50.2612 12.8031C50.2612 13.3368 49.8288 13.7694 49.2951 13.7694H48.0713V14.7355H50.068C50.6017 14.7354 51.0341 15.1678 51.0341 15.7015Z" fill="#FFF9EB"/>
</svg>
